<svg>
	<defs>
		<g id="mail">
			<path d="M149.996,0C67.157,0,0.001,67.158,0.001,149.997c0,82.837,67.156,150,149.995,150s150-67.163,150-150
				C299.996,67.158,232.835,0,149.996,0z M149.999,52.686l88.763,55.35H61.236L149.999,52.686z M239.868,196.423h-0.009
				c0,8.878-7.195,16.072-16.072,16.072H76.211c-8.878,0-16.072-7.195-16.072-16.072v-84.865c0-0.939,0.096-1.852,0.252-2.749
				l84.808,52.883c0.104,0.065,0.215,0.109,0.322,0.169c0.112,0.062,0.226,0.122,0.34,0.179c0.599,0.309,1.216,0.558,1.847,0.721
				c0.065,0.018,0.13,0.026,0.195,0.041c0.692,0.163,1.393,0.265,2.093,0.265h0.005c0.005,0,0.01,0,0.01,0
				c0.7,0,1.401-0.099,2.093-0.265c0.065-0.016,0.13-0.023,0.195-0.041c0.63-0.163,1.245-0.412,1.847-0.721
				c0.114-0.057,0.228-0.117,0.34-0.179c0.106-0.06,0.218-0.104,0.322-0.169l84.808-52.883c0.156,0.897,0.252,1.808,0.252,2.749
				V196.423z"/>
		</g>
		<g id="github">
			<path style="fill:#030104;" d="M48.07,47.746c-0.022,0-0.047-0.001-0.07-0.002c-0.024,0.001-0.049,0.002-0.071,0.002
				c-5.957,0-11.206-1.508-14.308,1.34c-1.859,1.709-2.642,3.768-2.642,5.985c0,9.261,7.42,10.398,16.949,10.398h0.142
				c9.529,0,16.949-1.138,16.949-10.398c0-2.218-0.783-4.276-2.642-5.985C59.275,46.238,54.027,47.746,48.07,47.746z M39.968,60.401
				c-1.813,0-3.283-2.036-3.283-4.547s1.47-4.546,3.283-4.546s3.285,2.035,3.285,4.546S41.781,60.401,39.968,60.401z M56.031,60.401
				c-1.814,0-3.285-2.036-3.285-4.547s1.471-4.546,3.285-4.546c1.812,0,3.283,2.035,3.283,4.546S57.844,60.401,56.031,60.401z M48,0
				C21.489,0,0,21.49,0,48s21.489,48,48,48c26.509,0,48-21.49,48-48S74.509,0,48,0z M52.378,67.701c-0.86,0-2.57,0.002-4.378,0.004
				c-1.809-0.002-3.52-0.004-4.379-0.004c-3.803,0-18.863-0.291-18.863-18.445c0-4.177,1.432-7.233,3.775-9.778
				c-0.374-0.923-0.393-6.165,1.602-11.183c0,0,4.576,0.502,11.5,5.253c1.451-0.401,3.908-0.601,6.365-0.601
				c2.455,0,4.912,0.199,6.365,0.601c6.923-4.751,11.498-5.253,11.498-5.253c1.995,5.018,1.977,10.26,1.603,11.183
				c2.344,2.545,3.776,5.602,3.776,9.778C71.242,67.41,56.181,67.701,52.378,67.701z"/>
		</g>
		<g id="linkedin">
			<path style="fill:#F1F2F2;" d="M89.616,60.611v23.128H76.207V62.161c0-5.418-1.936-9.118-6.791-9.118
				c-3.705,0-5.906,2.491-6.878,4.903c-0.353,0.862-0.444,2.059-0.444,3.268v22.524H48.684c0,0,0.18-36.546,0-40.329h13.411v5.715
				c-0.027,0.045-0.065,0.089-0.089,0.132h0.089v-0.132c1.782-2.742,4.96-6.662,12.085-6.662
				C83.002,42.462,89.616,48.226,89.616,60.611L89.616,60.611z M34.656,23.969c-4.587,0-7.588,3.011-7.588,6.967
				c0,3.872,2.914,6.97,7.412,6.97h0.087c4.677,0,7.585-3.098,7.585-6.97C42.063,26.98,39.244,23.969,34.656,23.969L34.656,23.969z
				 M27.865,83.739H41.27V43.409H27.865V83.739z"/>
		</g>
	</defs>
</svg>
